# xmcd
#
# Track frame offsets:
# 150
# 16352
# 36442
# 52943
# 67945
# 88385
# 109761
# 126862
# 143430
# 160552
#
# Disc length: 2370 seconds
#
#
# Revision: 0
# Processed by: cddbd v1.5.2PL0 Copyright (c) Steve Scherf et al.
# Submitted via: FreeRIP 2.93 
#
DISCID=7c09400a
DTITLE=Gangster - Gangster
DYEAR=1989
DGENRE=Rock
TTITLE0=Drive Me Mad
TTITLE1=Strange Connection
TTITLE2=Again and Again (Standing At The Crossroad)
TTITLE3=I'm A Fool
TTITLE4=Fishtown Blues
TTITLE5=Gangster Blues
TTITLE6=Limousine
TTITLE7=Take It Easy
TTITLE8=The Way You Are
TTITLE9=Can't Stop It
EXTD=Rockwerk Records 
EXTT0=
EXTT1=
EXTT2=
EXTT3=
EXTT4=
EXTT5=
EXTT6=
EXTT7=
EXTT8=
EXTT9=
PLAYORDER=
